<svg width="100" height="100" viewBox="0 0 100 100" fill="none" xmlns="http://www.w3.org/2000/svg">
<g clip-path="url(#clip0_11_287)">
<path d="M92.1059 70.5412C92.1059 70.5409 92.1059 70.5409 92.1059 70.5412C90.9763 69.8892 90.1684 68.8367 89.8309 67.5768C89.4932 66.3169 89.6666 65.0011 90.3196 63.8707C91.3197 62.1379 91.8482 60.1673 91.8482 58.1726C91.8482 55.0683 90.5755 52.1268 88.4097 50.0048C89.8661 48.5886 90.9195 46.8015 91.4589 44.7876C92.2475 41.8437 91.8428 38.7688 90.3196 36.1291C89.8896 35.3843 89.6625 34.5424 89.6625 33.694C89.6625 31.9536 90.5979 30.3316 92.1043 29.4595C92.1052 29.4591 92.1061 29.4584 92.107 29.458C92.107 29.458 92.1072 29.4577 92.1074 29.4577C93.668 28.5558 94.202 26.5595 93.3003 24.9987C92.3985 23.4381 90.4025 22.9036 88.8414 23.8056C87.7123 24.458 86.3967 24.631 85.1366 24.2937C83.8767 23.956 82.8242 23.148 82.1714 22.0169C80.137 18.4968 76.3482 16.3102 72.283 16.3102C71.2407 16.3102 70.2045 16.4551 69.2048 16.7364C67.9458 11.8046 63.4654 8.14671 58.1469 8.14671C56.8421 8.14671 55.6158 7.63883 54.6955 6.7186C53.7723 5.79381 53.2637 4.56698 53.2637 3.26378C53.2637 1.46118 51.8023 -0.000213623 49.9997 -0.000213623C48.1971 -0.000213623 46.7357 1.46118 46.7357 3.26378C46.7357 5.95635 44.5452 8.14671 41.8526 8.14671C38.8042 8.14671 35.9387 9.3335 33.7818 11.4903C32.3111 12.9635 31.2914 14.7665 30.7927 16.7317C28.8399 16.18 26.7675 16.1618 24.7556 16.7008C21.811 17.4898 19.3506 19.3783 17.8281 22.0165C16.9566 23.5247 15.3333 24.4614 13.5919 24.4614C12.7437 24.4614 11.9015 24.2343 11.1569 23.8045C9.59587 22.9037 7.60004 23.4385 6.69875 24.9991C5.79745 26.56 6.33187 28.556 7.8925 29.4577C7.89293 29.458 7.89315 29.458 7.89359 29.4582C7.89402 29.4584 7.89446 29.4588 7.89511 29.4591C10.2243 30.8064 11.0251 33.7978 9.68008 36.1287C8.67825 37.8643 8.14883 39.8344 8.14883 41.8267C8.14883 44.9308 9.422 47.8723 11.5893 49.9946C10.1329 51.4105 9.07929 53.1978 8.53964 55.2113C7.75062 58.1561 8.15558 61.2316 9.67986 63.8702C10.1081 64.6122 10.3344 65.4543 10.3344 66.3052C10.3344 68.0488 9.39916 69.6716 7.89359 70.5403C6.33231 71.4414 5.7968 73.4374 6.69788 74.9987C7.59896 76.5602 9.59478 77.0953 11.1563 76.1944C11.1584 76.1931 11.1604 76.192 11.1626 76.1907C13.4935 74.8507 16.4818 75.6528 17.8266 77.9805C19.8583 81.5017 23.6476 83.689 27.716 83.689C28.7583 83.689 29.7943 83.544 30.7942 83.2625C32.0534 88.1944 36.5338 91.8522 41.8524 91.8522C43.1571 91.8522 44.3835 92.3601 45.3037 93.2803C46.227 94.2051 46.7355 95.4322 46.7355 96.7354C46.7355 98.5379 48.1969 99.9993 49.9995 99.9993C51.8021 99.9993 53.2635 98.5379 53.2635 96.7354C53.2635 94.0428 55.4541 91.8522 58.1464 91.8522C61.1948 91.8522 64.0606 90.6654 66.2172 88.5086C67.6882 87.0354 68.7076 85.2324 69.2064 83.2673C71.1591 83.8189 73.2317 83.8374 75.2426 83.2981C78.1858 82.5094 80.6464 80.6212 82.172 77.9805C83.0407 76.4749 84.6635 75.5396 86.4072 75.5396C87.258 75.5396 88.1001 75.7662 88.8421 76.1942L88.8423 76.1944C90.4038 77.0955 92.3999 76.5602 93.3007 74.9987C94.2024 73.4383 93.6672 71.442 92.1059 70.5412ZM69.8483 23.4953C70.5929 23.0655 71.435 22.8384 72.2832 22.8384C74.0247 22.8384 75.648 23.7754 76.5184 25.2816C78.0418 27.9217 80.5024 29.8103 83.4469 30.5993C83.4835 30.6091 83.5201 30.6186 83.5566 30.6282C83.28 31.615 83.1345 32.6456 83.1345 33.6944C83.1345 35.6865 83.6639 37.6569 84.6655 39.3925C85.3176 40.5225 85.4909 41.8389 85.1534 43.0991C84.8159 44.359 84.0083 45.4113 82.8786 46.0634L81.1937 47.0363C80.3176 37.7437 75.3681 29.6185 68.1527 24.4728L69.8483 23.4953ZM49.9993 74.8079C36.3203 74.8079 25.1917 63.6792 25.1917 50.0002C25.1917 36.3213 36.3203 25.1928 49.9993 25.1928C63.6782 25.1928 74.8067 36.3215 74.8067 50.0002C74.8067 63.6792 63.6782 74.8079 49.9993 74.8079ZM38.3997 16.105C39.3219 15.183 40.5483 14.6751 41.8528 14.6751C45.0389 14.6751 47.9236 13.363 49.9958 11.2503C50.023 11.278 50.0502 11.3056 50.0776 11.333C52.2327 13.4881 55.0983 14.6749 58.1469 14.6749C60.8394 14.6749 63.0298 16.8655 63.0298 19.5578V21.5056C59.0595 19.6827 54.6461 18.6644 49.9991 18.6644C45.3525 18.6644 40.9395 19.6823 36.9697 21.5049V19.5578C36.9699 18.2549 37.4782 17.0278 38.3997 16.105ZM15.3344 39.3922C16.9264 36.6333 17.2319 33.4781 16.4381 30.6273C19.3674 29.8692 21.9324 27.962 23.4815 25.2816C24.1332 24.1522 25.186 23.3443 26.4457 23.0068C27.7058 22.6691 29.0212 22.8423 30.151 23.4951L31.845 24.4734C24.6302 29.6192 19.6812 37.7437 18.8049 47.0356L17.1205 46.063C15.6136 45.1934 14.6772 43.5706 14.6772 41.8278C14.6772 40.9792 14.9044 40.1371 15.3344 39.3922ZM30.1516 76.5047C29.407 76.9345 28.5649 77.1616 27.7167 77.1616C25.9739 77.1616 24.3511 76.2255 23.4807 74.7171C21.887 71.9582 19.3065 70.116 16.4398 69.3783C16.717 68.3898 16.863 67.357 16.863 66.3056C16.863 64.3109 16.3343 62.3403 15.3337 60.6065C14.6814 59.4773 14.5082 58.1615 14.8457 56.9016C15.1832 55.6417 15.9911 54.589 17.1213 53.9368L18.8047 52.9646C19.6807 62.2565 24.6298 70.3812 31.8443 75.527L30.1516 76.5047ZM61.6002 83.895C60.6782 84.817 59.4518 85.3249 58.1471 85.3249C54.961 85.3249 52.0763 86.637 50.0041 88.7497C49.9769 88.7218 49.9497 88.6944 49.9223 88.6668C47.7672 86.5117 44.9016 85.3249 41.853 85.3249C39.1604 85.3249 36.9701 83.1343 36.9701 80.4419V78.4955C40.94 80.3179 45.3529 81.3358 49.9995 81.3358C54.6466 81.3358 59.0599 80.3177 63.0302 78.4946V80.4419C63.03 81.7451 62.5215 82.9722 61.6002 83.895ZM84.6662 60.6065C83.1414 63.2462 82.7363 66.3217 83.5253 69.2665C83.5351 69.303 83.5451 69.3394 83.5553 69.3759C80.626 70.1347 78.0635 72.0404 76.5192 74.7169C75.1721 77.0491 72.1803 77.8514 69.8463 76.5032L68.153 75.5275C75.3681 70.3814 80.3176 62.2563 81.1935 52.9637L82.8792 53.9372C84.3848 54.8061 85.32 56.429 85.32 58.1724C85.3203 59.0234 85.094 59.8655 84.6662 60.6065Z" fill="#E0E0E0"/>
<path d="M49.9993 29.8098C38.8663 29.8098 29.8087 38.8672 29.8087 50.0002C29.8087 61.1333 38.8663 70.1908 49.9993 70.1908C61.1324 70.1908 70.1897 61.1333 70.1897 50.0002C70.1897 38.8672 61.1324 29.8098 49.9993 29.8098ZM49.9993 63.6626C42.4658 63.6626 36.3367 57.5335 36.3367 50C36.3367 42.4665 42.4658 36.3376 49.9993 36.3376C57.5328 36.3376 63.6618 42.4665 63.6618 50C63.6618 57.5335 57.5328 63.6626 49.9993 63.6626Z" fill="#E0E0E0"/>
<path d="M49.9984 46.7358C49.1388 46.7358 48.2989 47.084 47.6918 47.6932C47.0847 48.3003 46.7344 49.1403 46.7344 49.9998C46.7344 50.8593 47.0847 51.7014 47.6918 52.3085C48.2989 52.9156 49.141 53.2638 49.9984 53.2638C50.8579 53.2638 51.7 52.9156 52.3071 52.3085C52.9142 51.7014 53.2624 50.8593 53.2624 49.9998C53.2624 49.1403 52.9142 48.3003 52.3071 47.6932C51.7 47.0837 50.8579 46.7358 49.9984 46.7358Z" fill="#E0E0E0"/>
</g>
<defs>
<clipPath id="clip0_11_287">
<rect width="100" height="100" fill="white"/>
</clipPath>
</defs>
</svg>
