<svg width="86" height="86" viewBox="0 0 86 86" fill="none" xmlns="http://www.w3.org/2000/svg">
<path d="M62.7087 37.9501C59.7169 34.8894 57.7728 31.0009 57.087 26.7055C56.4013 22.4135 56.7331 18.5078 58.0729 15.0968C62.5493 3.70286 62.6785 0.369866 62.6785 0.0273789H59.7773L59.7778 0C59.7741 0.100781 59.6755 2.07878 57.5081 8.30268C56.4484 8.00739 54.8674 7.68892 53.0277 7.71277C50.254 7.74872 46.3887 8.58302 42.9993 12.1376C39.61 8.58285 35.7447 7.74872 32.9709 7.71277C31.1283 7.68993 29.5489 8.00773 28.4905 8.30251C26.3231 2.07878 26.2245 0.100781 26.2208 0L26.2211 0.0272109H23.32C23.32 0.369698 23.4491 3.70253 27.9255 15.0968C29.2655 18.5074 29.5971 22.4134 28.9115 26.7055C28.2255 31.0009 26.2814 34.8894 23.2897 37.9501C20.2827 41.0266 17.7451 44.7396 15.7476 48.9855C15.4066 49.7104 15.7179 50.5746 16.4427 50.9156C16.6422 51.0093 16.8523 51.0538 17.0593 51.0538C17.6037 51.0538 18.1257 50.7458 18.3729 50.2202C20.2322 46.2679 22.5844 42.8219 25.3645 39.9778C27.087 38.2157 28.504 36.2137 29.5863 34.0346H47.7096C48.511 34.0346 49.1602 33.3851 49.1602 32.584C49.1602 31.783 48.5108 31.1334 47.7096 31.1334H30.7898C31.2256 29.852 31.5588 28.5262 31.7767 27.1628C32.5451 22.3519 32.1581 17.9352 30.6259 14.0356C30.203 12.9589 29.8212 11.9599 29.4755 11.0313C31.931 10.3778 37.5447 9.69178 41.8527 15.2499C42.1274 15.6044 42.5508 15.8117 42.9993 15.8117C43.4478 15.8117 43.8712 15.6041 44.1458 15.2499C48.4537 9.69178 54.0676 10.3779 56.5231 11.0313C56.1774 11.9597 55.7956 12.9589 55.3727 14.0356C53.8407 17.9357 53.4535 22.3522 54.2221 27.1627C54.44 28.5261 54.7732 29.8518 55.2089 31.1334H52.8293C52.0279 31.1334 51.3787 31.783 51.3787 32.584C51.3787 33.3851 52.0281 34.0346 52.8293 34.0346H56.4122C57.4948 36.2137 58.9116 38.2155 60.6341 39.9778C67.4033 46.903 71.4797 57.143 72.0021 68.3615C68.9005 70.0815 65.1036 69.9409 62.1238 67.9414C61.6315 67.6044 60.9827 67.6056 60.4905 67.938C57.2766 70.093 53.1238 70.0924 49.925 67.9459C49.4306 67.6038 48.7779 67.6046 48.2848 67.9384C45.07 70.0932 40.9178 70.092 37.6989 67.9316C37.2035 67.6012 36.5607 67.61 36.0763 67.9405C32.8624 70.0927 28.7119 70.0905 25.4955 67.9316C25.0067 67.6058 24.3698 67.6068 23.8825 67.9342C20.8972 69.9385 17.1019 70.0805 13.9977 68.361C14.2246 63.4788 15.1253 58.771 16.6887 54.3349C16.9548 53.5794 16.5584 52.751 15.8027 52.4847C15.0473 52.2189 14.2188 52.6153 13.9525 53.3708C12.0184 58.8593 11.0376 64.7322 11.0376 70.8256V84.5489C11.0376 85.3501 11.6871 85.9995 12.4882 85.9995H73.5126C74.314 85.9995 74.9632 85.35 74.9632 84.5489V70.8256C74.962 57.8996 70.4961 45.9167 62.7087 37.9501ZM13.9377 71.5448C17.4169 72.9606 21.3675 72.7271 24.6902 70.8429C28.485 72.9945 33.0989 72.9944 36.8936 70.8429C40.6892 72.9952 45.3037 72.9952 49.0989 70.8429C50.9966 71.9189 53.0994 72.457 55.2019 72.457C57.3043 72.457 59.4071 71.919 61.3047 70.8429C64.6259 72.7268 68.5753 72.9609 72.061 71.543V75.1897C68.9487 76.9441 65.1224 76.8138 62.1238 74.8015C61.6315 74.4646 60.9827 74.4658 60.4905 74.7982C57.2766 76.9532 53.1238 76.9525 49.925 74.8061C49.4335 74.4659 48.7831 74.4636 48.2885 74.7958C45.074 76.9525 40.9193 76.9532 37.6987 74.7918C37.2101 74.4661 36.5728 74.4675 36.085 74.7947C32.8698 76.9527 28.7149 76.9527 25.4953 74.7918C25.0065 74.4659 24.3698 74.4668 23.8823 74.7943C20.8782 76.8111 17.0534 76.943 13.9381 75.189V71.5448H13.9377ZM72.0612 83.0985H13.9377V78.4051C17.4169 79.8206 21.3675 79.5871 24.6904 77.7032C28.4862 79.8555 33.1011 79.8552 36.894 77.7034C40.6897 79.8559 45.3037 79.8555 49.0991 77.7034C50.9971 78.7797 53.0992 79.3179 55.202 79.3175C57.3045 79.3175 59.4073 78.7795 61.3048 77.7034C64.6261 79.5873 68.5755 79.8214 72.0612 78.4035V83.0985Z" fill="#E0E0E0"/>
<path d="M62.3509 63.1801C61.8095 56.8286 60.5659 50.7537 58.754 45.6122C58.488 44.8566 57.6597 44.4597 56.904 44.7261C56.1483 44.9925 55.7514 45.8206 56.0178 46.5763C57.7489 51.4894 58.9393 57.316 59.4602 63.4264C59.5245 64.1827 60.1584 64.754 60.9039 64.754C60.9452 64.754 60.9868 64.7523 61.0288 64.7488C61.827 64.6806 62.4189 63.9783 62.3509 63.1801Z" fill="#E0E0E0"/>
<path d="M57.1906 41.7062C56.6311 40.4725 56.0303 39.3036 55.4048 38.2321C55.0008 37.5401 54.1126 37.3068 53.4205 37.7108C52.7287 38.1146 52.4952 39.0029 52.8992 39.6948C53.475 40.6809 54.0299 41.761 54.5486 42.9047C54.7913 43.44 55.3186 43.7564 55.8705 43.7564C56.0707 43.7564 56.2745 43.7146 56.469 43.6264C57.1983 43.2955 57.5215 42.4359 57.1906 41.7062Z" fill="#E0E0E0"/>
<path d="M32.577 37.7106C31.8853 37.3065 30.9971 37.5403 30.593 38.232C28.0192 42.6408 26.0019 48.4357 24.7591 54.9902C24.6098 55.7775 25.1269 56.5363 25.914 56.6857C26.0056 56.7031 26.0964 56.7114 26.186 56.7114C26.8691 56.7114 27.4776 56.2264 27.6095 55.5307C28.7917 49.2974 30.6897 43.8215 33.0985 39.6945C33.5022 39.0028 33.2689 38.1144 32.577 37.7106Z" fill="#E0E0E0"/>
<path d="M25.6791 58.1653C24.8846 58.0616 24.1564 58.6213 24.0526 59.4155C23.8912 60.6502 23.7546 61.9169 23.6468 63.1798C23.5788 63.978 24.1707 64.6803 24.969 64.7485C25.011 64.752 25.0525 64.7537 25.0938 64.7537C25.8393 64.7537 26.473 64.1826 26.5377 63.4261C26.6415 62.2061 26.7734 60.9835 26.9292 59.7917C27.0332 58.9976 26.4734 58.2691 25.6791 58.1653Z" fill="#E0E0E0"/>
<path d="M42.957 38.0986C42.156 38.0986 41.5065 38.7481 41.5065 39.5492V63.3031C41.5065 64.1041 42.156 64.7537 42.957 64.7537C43.7581 64.7537 44.4076 64.1041 44.4076 63.3031V39.5492C44.4076 38.748 43.7584 38.0986 42.957 38.0986Z" fill="#E0E0E0"/>
</svg>
