<svg width="103" height="103" viewBox="0 0 103 103" fill="none" xmlns="http://www.w3.org/2000/svg">
<g clip-path="url(#clip0_11_279)">
<path d="M85.7084 78.4248L73.3317 43.7088C76.5567 40.7341 78.4646 36.8482 78.7461 32.6174C79.0428 28.1578 77.4749 23.7045 74.4245 20.2628C74.5208 14.4502 75.5999 9.60916 76.4752 5.6847C76.7193 4.58972 76.9502 3.5553 77.1472 2.56392C77.2721 1.93385 77.1085 1.28085 76.7007 0.784357C76.2934 0.287663 75.6848 -0.000213623 75.0425 -0.000213623H67.6371C66.6653 -0.000213623 65.8149 0.65279 65.5639 1.59186C63.3341 9.93707 60.0793 17.9916 51.4999 20.5931C42.92 17.9914 39.6652 9.93667 37.4356 1.59186C37.1848 0.652992 36.3344 -1.24511e-05 35.3623 -1.24511e-05H27.9576C27.3151 -1.24511e-05 26.7065 0.287663 26.2989 0.784357C25.8916 1.28085 25.7278 1.93385 25.8529 2.56392C26.0499 3.5553 26.2804 4.58952 26.5249 5.6847C27.4 9.60916 28.479 14.4502 28.5756 20.2628C25.5248 23.7045 23.9573 28.1578 24.254 32.6174C24.5353 36.8478 26.4434 40.7341 29.668 43.7088L17.2913 78.4248C16.9036 79.512 17.4456 80.7108 18.5176 81.1385C25.9966 84.1218 38.0057 85.833 51.4657 85.833C64.9702 85.833 77.0041 84.1216 84.4825 81.1385C85.5547 80.7106 86.0963 79.512 85.7084 78.4248ZM51.4657 81.5416C47.6887 81.5416 44.0033 81.3965 40.5049 81.1224L41.8065 72.4681C41.9825 71.2963 41.1754 70.2031 40.0036 70.0271C38.8305 69.8503 37.7386 70.658 37.5628 71.8298L36.227 80.7116C30.7179 80.0805 25.8411 79.108 22.0504 77.8563L33.4158 45.9768C34.7266 46.4099 36.2004 46.6425 37.7251 46.6425C37.919 46.6425 38.1142 46.6389 38.3095 46.6314C39.494 46.5858 40.4168 45.5888 40.3709 44.4045C40.3253 43.2202 39.3349 42.2972 38.1437 42.343C36.3426 42.4137 34.5498 42.0107 33.4468 41.2923C30.5109 38.9815 28.7669 35.8032 28.536 32.3329C28.3008 28.7994 29.6581 25.2533 32.2595 22.6037C32.6534 22.2023 32.8738 21.6628 32.8738 21.1003C32.8738 14.4407 31.6761 9.06801 30.7135 4.75106C30.6791 4.59677 30.6453 4.44387 30.6111 4.29199H33.7274C34.7464 7.87325 36.1214 11.82 38.3598 15.3627C41.1468 19.773 44.8418 22.8034 49.3542 24.3985V29.0729C49.3542 30.2581 50.3148 31.2188 51.5001 31.2188C52.6848 31.2188 53.646 30.2583 53.646 29.0729V24.3985C58.1585 22.803 61.8535 19.773 64.6399 15.3627C66.8783 11.8198 68.2535 7.87305 69.2723 4.29199H72.3886C72.3552 4.44367 72.3208 4.59677 72.2862 4.75106C71.324 9.06801 70.1258 14.4407 70.1258 21.1003C70.1258 21.6628 70.3467 22.2023 70.7406 22.6037C73.342 25.2531 74.6991 28.7994 74.4637 32.3329C74.2332 35.8032 72.4894 38.9813 69.5533 41.2923C68.4505 42.0105 66.6599 42.4133 64.8559 42.343C63.664 42.3006 62.6744 43.2206 62.6288 44.4045C62.5831 45.5888 63.5061 46.5858 64.6902 46.6314C64.8859 46.6389 65.0803 46.6425 65.2744 46.6425C66.7991 46.6425 68.2729 46.4101 69.5837 45.9768L80.9495 77.8561C73.9139 80.1785 63.1224 81.5416 51.4657 81.5416Z" fill="#E0E0E0"/>
<path d="M51.5002 34.652C50.315 34.652 49.3542 35.6128 49.3542 36.7979V38.0854C49.3542 39.2705 50.3148 40.2313 51.5002 40.2313C52.6849 40.2313 53.646 39.2707 53.646 38.0854V36.7979C53.646 35.6128 52.6851 34.652 51.5002 34.652Z" fill="#E0E0E0"/>
<path d="M41.2137 61.9793C40.04 61.8026 38.9487 62.6105 38.7728 63.7826L38.5864 65.0258C38.4103 66.1978 39.2174 67.2906 40.3893 67.4666C40.4975 67.4829 40.6047 67.4906 40.7107 67.4906C41.755 67.4906 42.6705 66.7271 42.8301 65.6631L43.0166 64.4199C43.1926 63.2478 42.3855 62.1553 41.2137 61.9793Z" fill="#E0E0E0"/>
</g>
<defs>
<clipPath id="clip0_11_279">
<rect width="103" height="103" fill="white"/>
</clipPath>
</defs>
</svg>
