<svg width="89" height="89" viewBox="0 0 89 89" fill="none" xmlns="http://www.w3.org/2000/svg">
<path d="M61.3008 56.8722H60.3771V43.8343C60.3771 42.7311 59.4827 41.8372 58.38 41.8372H56.6582V7.18725C56.8863 4.98608 56.3653 3.0599 55.0094 1.70387C51.5647 -1.74035 44.4496 0.180445 38.4583 6.17193C35.8098 8.82036 33.8341 11.8684 32.8946 14.7548C32.4273 16.1908 32.2342 17.5309 32.3062 18.7362C32.2982 18.8087 32.2931 18.8818 32.2931 18.9562V41.8375H30.6197C29.5166 41.8375 28.6226 42.7317 28.6226 43.8346V56.8725H27.6989C26.596 56.8725 25.7018 57.7667 25.7018 58.8696V87.0029C25.7018 88.1058 26.596 89 27.6989 89H61.3008C62.4035 89 63.2979 88.1058 63.2979 87.0029V58.8693C63.2979 57.7663 62.4037 56.8722 61.3008 56.8722ZM36.6927 15.9907C37.4301 13.7253 39.103 11.1757 41.2828 8.9961C44.7698 5.50912 48.3713 4.01282 50.5296 4.01282C51.2748 4.01282 51.8484 4.19134 52.1849 4.52804C53.0429 5.38605 52.8734 7.77844 51.3419 10.6435C51.3142 10.6946 51.2859 10.7458 51.2575 10.7971C51.2094 10.8853 51.1612 10.973 51.1103 11.0617C50.4729 12.1665 49.666 13.286 48.7257 14.3545C48.7193 14.3616 48.7132 14.3689 48.7068 14.3761C48.567 14.5344 48.4236 14.6914 48.2781 14.8473C48.2536 14.8736 48.23 14.8996 48.2055 14.9259C48.0457 15.0957 47.8832 15.264 47.7169 15.4302C46.8997 16.2477 46.0302 16.9936 45.1433 17.6458C43.6653 18.7329 42.1382 19.5591 40.7222 20.0199C40.6868 20.0315 40.652 20.0413 40.6165 20.0524C40.5418 20.0757 40.4669 20.0997 40.3937 20.1209C40.3521 20.1329 40.312 20.1428 40.2711 20.1541C40.2046 20.1723 40.138 20.1913 40.0726 20.2076C40.0292 20.2186 39.9867 20.2274 39.9438 20.2375C39.8825 20.252 39.8207 20.2671 39.7606 20.2796C39.7156 20.2892 39.6721 20.2966 39.6278 20.3051C39.5711 20.3161 39.5138 20.3279 39.4583 20.3373C39.4131 20.3449 39.3695 20.3505 39.3252 20.3573C39.272 20.3653 39.2184 20.374 39.1666 20.3806C39.122 20.3861 39.0788 20.3898 39.0349 20.3943C38.985 20.3995 38.9346 20.4054 38.8857 20.4094C38.8424 20.4129 38.8007 20.4143 38.7581 20.4166C38.7109 20.4192 38.6627 20.4225 38.6163 20.424C38.5744 20.4253 38.5341 20.4244 38.493 20.4244C38.4484 20.4244 38.403 20.4254 38.3594 20.4242C38.3189 20.423 38.2801 20.42 38.2405 20.4176C38.1986 20.4152 38.156 20.4136 38.1153 20.4098C38.0769 20.4063 38.0406 20.4009 38.0032 20.3964C37.9634 20.3915 37.9231 20.3874 37.8848 20.3813C37.8488 20.3755 37.8149 20.3679 37.7802 20.3611C37.7428 20.3538 37.7049 20.3469 37.6689 20.3383C37.6357 20.3303 37.6044 20.3206 37.5723 20.3116C37.5372 20.3017 37.5015 20.2925 37.4678 20.2812C37.4372 20.2709 37.4089 20.2593 37.3795 20.2478C37.347 20.2353 37.3136 20.2233 37.2827 20.2094C37.2549 20.197 37.2291 20.1831 37.2027 20.1699C37.1728 20.1548 37.1422 20.1402 37.1139 20.1238C37.0892 20.1094 37.0661 20.0934 37.0426 20.0781C37.0155 20.0604 36.9879 20.043 36.9623 20.0241C36.9401 20.0075 36.9199 19.9893 36.8991 19.9716C36.8747 19.9507 36.8497 19.9305 36.8269 19.9085C36.8189 19.9001 36.8111 19.8914 36.8029 19.8831C36.8003 19.8803 36.7975 19.8777 36.7948 19.8749C36.1563 19.2074 36.1168 17.7601 36.6927 15.9907ZM36.2872 24.1054H36.2874C36.3261 24.1175 36.3659 24.128 36.405 24.1393C36.4603 24.1556 36.5154 24.1726 36.5717 24.1874C36.6157 24.1991 36.6604 24.209 36.7049 24.2197C36.7624 24.2336 36.8194 24.2481 36.8778 24.2608C36.9225 24.2703 36.9681 24.2783 37.0133 24.2872C37.0725 24.2988 37.1316 24.3105 37.192 24.3206C37.2375 24.3282 37.2836 24.3341 37.3296 24.3409C37.3905 24.3499 37.4515 24.3591 37.5132 24.3666C37.5598 24.3722 37.6071 24.3764 37.654 24.3812C37.7166 24.3877 37.7788 24.3943 37.8421 24.399C37.8893 24.4026 37.9373 24.4049 37.9853 24.4075C38.0493 24.4113 38.1131 24.4151 38.1776 24.4174C38.226 24.4189 38.2754 24.4193 38.3243 24.4203C38.3731 24.4212 38.4213 24.4233 38.4706 24.4233C38.4852 24.4233 38.5 24.4222 38.5146 24.4222C38.6001 24.4219 38.6863 24.4193 38.7731 24.4163C38.8145 24.4149 38.8553 24.4146 38.8968 24.4125C39.0237 24.4066 39.1517 24.3979 39.2808 24.3866C39.3168 24.3835 39.3533 24.3786 39.3895 24.375C39.4856 24.3654 39.5821 24.3551 39.6794 24.3428C39.7304 24.3362 39.7822 24.3282 39.8336 24.3209C39.9176 24.3089 40.0013 24.2966 40.0862 24.2823C40.142 24.2729 40.1979 24.2627 40.2539 24.2526C40.3361 24.2376 40.4189 24.2216 40.5021 24.2046C40.5593 24.193 40.6164 24.1808 40.6737 24.1683C40.7591 24.1495 40.8446 24.1295 40.9305 24.1088C40.9857 24.0954 41.0408 24.0824 41.0965 24.0682C41.1914 24.044 41.2868 24.0176 41.3826 23.9908C41.4299 23.9776 41.4768 23.9653 41.5246 23.9515C41.6682 23.9098 41.8126 23.8657 41.9581 23.8184C42.319 23.7009 42.6823 23.5674 43.047 23.4182C45.6002 22.3746 48.2236 20.5721 50.5409 18.2548C51.3184 17.4773 52.0257 16.6807 52.6633 15.8758V41.8368H36.2868V24.1054H36.2872ZM32.6168 53.364H46.5842C47.687 53.364 48.5813 52.4698 48.5813 51.3669C48.5813 50.264 47.687 49.3698 46.5842 49.3698H32.6168V45.8314H34.2902H54.6611H56.3828V56.8722H32.6168V53.364ZM59.3038 85.0055H59.3037H36.2874V70.9452C36.2874 69.8421 35.3932 68.9481 34.2902 68.9481C33.1871 68.9481 32.2931 69.8423 32.2931 70.9452V85.0055H29.696V60.8666H30.2858C30.3946 60.885 30.5057 60.8968 30.6199 60.8968H58.3801C58.4942 60.8968 58.6052 60.885 58.7142 60.8666H59.3038V85.0055Z" fill="#E0E0E0"/>
<path d="M54.5337 50.9761C54.5074 50.8484 54.4695 50.7242 54.4197 50.6027C54.3698 50.483 54.3075 50.367 54.2359 50.2593C54.164 50.1494 54.0802 50.0475 53.9882 49.9558C53.8963 49.864 53.7927 49.78 53.6847 49.7061C53.5747 49.6342 53.4589 49.5723 53.3392 49.5224C53.2196 49.4725 53.0937 49.4344 52.9658 49.4085C52.7082 49.3566 52.4425 49.3566 52.1849 49.4085C52.0572 49.4344 51.9332 49.4725 51.8116 49.5224C51.6918 49.5723 51.5758 49.6342 51.4681 49.7061C51.3582 49.78 51.2564 49.864 51.1646 49.9558C51.0705 50.0477 50.9888 50.1494 50.915 50.2593C50.843 50.367 50.7811 50.483 50.7312 50.6027C50.6813 50.7246 50.6434 50.8484 50.6174 50.9761C50.5915 51.106 50.5795 51.2358 50.5795 51.3676C50.5795 51.4974 50.5916 51.6292 50.6174 51.757C50.6431 51.8847 50.6813 52.0106 50.7312 52.1303C50.7811 52.2522 50.843 52.368 50.915 52.4759C50.9888 52.5858 51.0705 52.6876 51.1646 52.7794C51.2565 52.8714 51.3582 52.9551 51.4681 53.0271C51.5758 53.0991 51.6918 53.161 51.8116 53.2108C51.9334 53.2607 52.0572 53.2988 52.1849 53.3247C52.3148 53.3506 52.4448 53.3647 52.5764 53.3647C52.7062 53.3647 52.8363 53.3508 52.9658 53.3247C53.0937 53.2988 53.2196 53.2607 53.3392 53.2108C53.4587 53.161 53.5749 53.0991 53.6847 53.0271C53.7925 52.9551 53.8964 52.8714 53.9882 52.7794C54.3597 52.4079 54.5733 51.8927 54.5733 51.3674C54.5733 51.2356 54.5596 51.1058 54.5337 50.9761Z" fill="#E0E0E0"/>
<path d="M36.2475 64.5644C36.2216 64.4368 36.1835 64.3108 36.1336 64.1889C36.0837 64.0691 36.0219 63.9532 35.9499 63.8454C35.8779 63.7356 35.7942 63.6337 35.7022 63.5419C35.6102 63.4501 35.5086 63.3662 35.3987 63.2923C35.2909 63.2203 35.175 63.1605 35.0531 63.1105C34.9334 63.0606 34.8075 63.0206 34.6797 62.9966C34.4221 62.9446 34.1584 62.9446 33.9008 62.9966C33.7731 63.0206 33.6472 63.0606 33.5254 63.1105C33.4056 63.1604 33.2896 63.2203 33.1819 63.2923C33.072 63.3662 32.9701 63.4501 32.8784 63.5419C32.7866 63.6337 32.7026 63.7356 32.6307 63.8454C32.5587 63.9532 32.4968 64.0691 32.4469 64.1889C32.397 64.3108 32.3571 64.4366 32.3331 64.5644C32.3072 64.6921 32.2931 64.8241 32.2931 64.9537C32.2931 65.0834 32.307 65.2154 32.3331 65.3431C32.3571 65.4709 32.397 65.5967 32.4469 65.7165C32.4968 65.8384 32.5587 65.9541 32.6307 66.0621C32.7026 66.1719 32.7864 66.2738 32.8784 66.3656C32.9703 66.4575 33.072 66.5413 33.1819 66.6133C33.2896 66.6852 33.4056 66.7471 33.5254 66.797C33.6472 66.8469 33.7731 66.8869 33.9008 66.9109C34.0286 66.9368 34.1605 66.9509 34.2902 66.9509C34.42 66.9509 34.5518 66.9369 34.6796 66.9109C34.8073 66.8869 34.9332 66.8469 35.053 66.797C35.1748 66.7471 35.2906 66.6852 35.3985 66.6133C35.5084 66.5413 35.6102 66.4575 35.702 66.3656C35.794 66.2738 35.8778 66.1719 35.9497 66.0621C36.0217 65.9543 36.0836 65.8384 36.1335 65.7165C36.1833 65.5967 36.2212 65.4709 36.2473 65.3431C36.2732 65.2154 36.2873 65.0834 36.2873 64.9537C36.2873 64.8241 36.2736 64.6921 36.2475 64.5644Z" fill="#E0E0E0"/>
</svg>
