<svg width="102" height="102" viewBox="0 0 102 102" fill="none" xmlns="http://www.w3.org/2000/svg">
<path d="M78.5694 44.9814C78.5694 44.057 77.8202 43.3079 76.896 43.3079C75.9718 43.3079 75.2226 44.057 75.2226 44.9814C75.2226 60.4275 65.0317 72.9934 52.5056 72.9934H49.495C36.9688 72.9934 26.778 60.4273 26.778 44.9814V25.3025C26.778 25.1264 26.871 25.0214 26.9493 24.9642C27.0274 24.9072 27.1559 24.8506 27.3226 24.9042C32.9394 26.6992 38.7538 27.8515 44.6288 28.3356C44.6314 28.3499 44.635 28.3639 44.638 28.3782C44.6467 28.4223 46.0648 33.7755 51.3158 33.594C56.1963 33.4253 57.3689 28.3513 57.3719 28.335C63.2473 27.8511 69.0617 26.6986 74.6781 24.9034C74.8452 24.8498 74.9733 24.9068 75.0514 24.964C75.1295 25.0212 75.2228 25.1262 75.2228 25.3023V36.512C75.2224 37.4365 75.9716 38.1858 76.8958 38.1858C77.82 38.1858 78.5693 37.4367 78.5693 36.5124V25.3027C78.5693 24.0868 78.0063 22.9782 77.0247 22.2614C76.0435 21.5448 74.8164 21.346 73.6589 21.7163C69.6861 22.986 65.6096 23.9191 61.4826 24.5068C61.8699 24.0384 62.2474 23.5611 62.6116 23.0736C64.8689 20.052 66.5974 16.749 67.6094 13.5212C67.9951 12.2906 67.5729 11.0009 66.5336 10.2351C65.5022 9.47508 64.1557 9.45376 63.1028 10.1809C61.1316 11.5436 59.2643 13.1592 57.5536 14.9823C56.9213 15.6565 56.9549 16.7153 57.6287 17.3478C58.3028 17.98 59.3617 17.9467 59.994 17.2723C61.2581 15.9254 62.6134 14.7054 64.0346 13.635C63.1066 16.1503 61.7013 18.6991 59.9299 21.0701C59.0139 22.2961 58.0152 23.4581 56.9501 24.5375C56.8964 24.4142 56.6487 23.3384 55.4883 22.4399C55.8248 20.2323 55.9955 17.959 55.9955 15.6674C55.9955 10.8403 55.2381 6.11305 53.8049 1.99678C53.3823 0.784128 52.2812 0 50.9997 0C49.7181 0 48.6172 0.784128 48.1946 1.99678C46.7615 6.11285 46.0038 10.8401 46.0038 15.6676C46.0038 17.9592 46.1746 20.2323 46.511 22.4401C46.4367 22.5114 45.8618 23.1286 45.667 23.4292C45.4434 23.7745 45.1032 24.4134 45.0502 24.5351C43.9843 23.4547 42.9845 22.2921 42.0678 21.0651C40.2962 18.6934 38.8909 16.1448 37.9631 13.6298C39.3073 14.642 40.5938 15.7891 41.7985 17.0504C42.4368 17.7186 43.4961 17.7431 44.1646 17.1044C44.8328 16.4661 44.8573 15.4068 44.2188 14.7383C42.5701 13.0124 40.7791 11.4772 38.8955 10.1755C37.8432 9.44818 36.4967 9.4693 35.4649 10.2297C34.4256 10.9955 34.0032 12.2855 34.3891 13.5159C35.401 16.743 37.1294 20.0459 39.387 23.0682C39.7529 23.5579 40.132 24.0372 40.5213 24.5076C36.3935 23.9199 32.3157 22.9865 28.3414 21.7165C27.1838 21.3468 25.9568 21.5444 24.9754 22.2614C23.9939 22.978 23.4307 24.0866 23.4307 25.3027V44.9816C23.4307 60.302 32.6099 73.0897 44.6983 75.8062C43.345 77.3095 42.5199 79.2967 42.5199 81.4736C42.5199 85.5767 45.4494 89.0079 49.3266 89.787V100.327C49.3266 101.251 50.0759 102 51.0001 102C51.9242 102 52.6735 101.251 52.6735 100.327V89.787C56.5505 89.0079 59.4802 85.5765 59.4802 81.4736C59.4802 79.2967 58.6551 77.3091 57.3018 75.8062C69.3902 73.0893 78.5694 60.3018 78.5694 44.9814ZM50.9997 4.18261C52.0802 7.68808 52.6486 11.6326 52.6486 15.6676C52.6486 17.3887 52.545 19.0968 52.3402 20.7694C52.2336 20.7469 51.7005 20.6294 50.9999 20.6294C50.2829 20.6294 49.7655 20.7471 49.6593 20.7694C49.4545 19.0972 49.3509 17.3887 49.3509 15.6676C49.3507 11.6326 49.9189 7.68788 50.9997 4.18261ZM47.8705 26.9319L47.8735 26.8909V26.8906C47.9076 26.4085 48.3771 23.9761 51.0001 23.9761C53.5276 23.9761 54.0923 26.4087 54.1266 26.8909L54.1296 26.9315C54.134 26.9925 54.14 27.0538 54.14 27.116C54.14 28.8472 52.7315 30.2555 51.0003 30.2555C50.8919 30.2555 50.7849 30.2499 50.6797 30.2391C49.0983 30.078 47.8608 28.7388 47.8608 27.1158C47.8602 27.0538 47.8659 26.9927 47.8705 26.9319ZM50.9997 86.6071C48.1691 86.6071 45.8664 84.3045 45.8664 81.4738C45.8664 78.6433 48.1691 76.3405 50.9997 76.3405C53.8302 76.3405 56.1329 78.6431 56.1329 81.4738C56.1329 84.3043 53.8302 86.6071 50.9997 86.6071Z" fill="#E0E0E0"/>
<path d="M59.5836 34.9776C60.5078 34.9776 61.257 34.2283 61.257 33.3041C61.257 32.3799 60.5078 31.6307 59.5836 31.6307C58.6594 31.6307 57.9102 32.3799 57.9102 33.3041C57.9102 34.2283 58.6594 34.9776 59.5836 34.9776Z" fill="#E0E0E0"/>
<path d="M65.2352 34.2345C66.1594 34.2345 66.9087 33.4853 66.9087 32.561C66.9087 31.6368 66.1594 30.8876 65.2352 30.8876C64.311 30.8876 63.5618 31.6368 63.5618 32.561C63.5618 33.4853 64.311 34.2345 65.2352 34.2345Z" fill="#E0E0E0"/>
<path d="M70.6283 33.081C71.5525 33.081 72.3017 32.3318 72.3017 31.4076C72.3017 30.4834 71.5525 29.7341 70.6283 29.7341C69.7041 29.7341 68.9548 30.4834 68.9548 31.4076C68.9548 32.3318 69.7041 33.081 70.6283 33.081Z" fill="#E0E0E0"/>
<path d="M41.8939 35.1828C42.8181 35.1828 43.5673 34.4335 43.5673 33.5093C43.5673 32.5851 42.8181 31.8359 41.8939 31.8359C40.9697 31.8359 40.2205 32.5851 40.2205 33.5093C40.2205 34.4335 40.9697 35.1828 41.8939 35.1828Z" fill="#E0E0E0"/>
<path d="M36.242 34.4397C37.1663 34.4397 37.9155 33.6904 37.9155 32.7662C37.9155 31.842 37.1663 31.0928 36.242 31.0928C35.3178 31.0928 34.5686 31.842 34.5686 32.7662C34.5686 33.6904 35.3178 34.4397 36.242 34.4397Z" fill="#E0E0E0"/>
<path d="M30.8514 33.2862C31.7756 33.2862 32.5249 32.537 32.5249 31.6127C32.5249 30.6885 31.7756 29.9393 30.8514 29.9393C29.9272 29.9393 29.178 30.6885 29.178 31.6127C29.178 32.537 29.9272 33.2862 30.8514 33.2862Z" fill="#E0E0E0"/>
<path d="M71.1292 42.3449C71.0458 41.9092 70.7926 41.5243 70.4252 41.2751L68.5946 40.0332C63.7826 36.768 57.2106 38.0264 53.9452 42.8388C53.6959 43.2061 53.6029 43.6572 53.6864 44.0933C53.7698 44.5289 54.0231 44.9138 54.3904 45.1631L56.221 46.405C58.0308 47.6332 60.0889 48.2213 62.1273 48.2213C65.5083 48.2213 68.8334 46.6018 70.8706 43.5994C71.1197 43.232 71.2127 42.781 71.1292 42.3449ZM63.4971 44.7489C61.6085 45.1109 59.6916 44.7154 58.1001 43.6354L57.817 43.4434C60.2206 41.2488 63.9071 40.8968 66.7155 42.8025L67.0004 42.9958C66.0282 43.8873 64.8255 44.4949 63.4971 44.7489Z" fill="#E0E0E0"/>
<path d="M59.4289 60.1131L57.716 58.7134C53.2127 55.0336 46.5551 55.7034 42.8754 60.2065C42.2904 60.9225 42.3964 61.9768 43.112 62.5617L44.8249 63.9614C46.7803 65.5591 49.1416 66.3369 51.489 66.3369C54.5478 66.3369 57.5835 65.0161 59.6658 62.4681C60.2507 61.7521 60.1447 60.6978 59.4289 60.1131ZM46.9428 61.3698L46.6777 61.153C49.2665 59.1803 52.9698 59.1576 55.5981 61.3052L55.8633 61.522C53.2744 63.495 49.5711 63.5173 46.9428 61.3698Z" fill="#E0E0E0"/>
<path d="M49.6389 42.8388C46.3737 38.0264 39.8018 36.768 34.9895 40.0332L33.1589 41.2751C32.394 41.7939 32.1946 42.8346 32.7138 43.5994C34.7512 46.6022 38.0756 48.2213 41.4571 48.2213C43.495 48.2213 45.5537 47.633 47.3634 46.405L49.194 45.1631C49.5614 44.9138 49.8146 44.5289 49.8981 44.0933C49.9811 43.6572 49.8881 43.2057 49.6389 42.8388ZM45.484 43.6354C42.6754 45.541 38.989 45.19 36.5854 42.9946L36.8685 42.8025C39.6773 40.8972 43.3635 41.2484 45.7671 43.4434L45.484 43.6354Z" fill="#E0E0E0"/>
</svg>
